<svg width="279" height="61" viewBox="0 0 279 61" fill="none" xmlns="http://www.w3.org/2000/svg">
<path d="M39.2627 17.4651C43.6444 22.1007 45.7269 28.6302 45.7269 32.488C45.7269 36.3458 44.3709 43.1083 39.2627 48.3731C34.1545 53.6379 23.8932 60.4004 22.537 60.4004C21.1809 60.4004 9.29252 51.4486 6.03751 48.3731C2.78251 45.2976 -0.313863 36.5727 0.0255581 32.488C0.36498 28.4032 1.92437 21.5953 5.90209 17.4651C9.8798 13.335 15.5483 10.0239 22.718 10.0672C29.7908 10.1099 34.3938 12.3142 39.2627 17.4651Z" fill="#F6DADC"/>
<path d="M39.2627 17.4651C43.6444 22.1007 45.7269 28.6302 45.7269 32.488C45.7269 36.3458 44.3709 43.1083 39.2627 48.3731C34.1545 53.6379 23.8932 60.4004 22.537 60.4004C21.1809 60.4004 9.29252 51.4486 6.03751 48.3731C2.78251 45.2976 -0.313863 36.5727 0.0255581 32.488C0.36498 28.4032 1.92437 21.5953 5.90209 17.4651C9.8798 13.335 15.5483 10.0239 22.718 10.0672C29.7908 10.1099 34.3938 12.3142 39.2627 17.4651Z" fill="#C2392B"/>
<path d="M22.765 54.4527C34.4527 54.4527 43.9216 44.8899 43.9216 33.1008C43.9216 21.3117 34.4527 11.7489 22.765 11.7489C11.0773 11.7489 1.60832 21.3117 1.60832 33.1008C1.60832 44.8899 11.0773 54.4527 22.765 54.4527Z" fill="#F7F7F7" stroke="#1D1B19" stroke-width="0.730633"/>
<path d="M22.5196 52.7496C33.3044 52.7496 42.0419 43.9255 42.0419 33.0472C42.0419 22.1688 33.3044 13.3448 22.5196 13.3448C11.7348 13.3448 2.99738 22.1688 2.99738 33.0472C2.99738 43.9255 11.7348 52.7496 22.5196 52.7496Z" fill="#F7F7F7" stroke="#1D1B19" stroke-width="0.674189"/>
<path d="M22.7914 18.728C19.1513 18.728 18.7135 23.3496 18.7135 23.3496H22.8367H26.9599C26.9599 23.3496 26.4314 18.728 22.7914 18.728Z" fill="#FBCE01"/>
<path d="M38.1061 31.4148H36.3844V34.8584H38.1061V33.1366V31.4148Z" fill="#FBCE01"/>
<path d="M22.7914 47.7264C26.9599 47.817 26.9599 42.9236 26.9599 42.9236H18.7135C18.7135 42.9236 18.6228 47.6358 22.7914 47.7264Z" fill="#FBCE01"/>
<path d="M7.92969 34.8584H9.28899V31.4148H7.92969V33.1366V34.8584Z" fill="#FBCE01"/>
<path d="M22.7914 18.728C19.1513 18.728 18.7135 23.3496 18.7135 23.3496H22.8367H26.9599C26.9599 23.3496 26.4314 18.728 22.7914 18.728Z" stroke="#1D1B19" stroke-width="0.226099"/>
<path d="M38.1061 31.4148H36.3844V34.8584H38.1061V33.1366V31.4148Z" stroke="#1D1B19" stroke-width="0.226099"/>
<path d="M22.7914 47.7264C26.9599 47.817 26.9599 42.9236 26.9599 42.9236H18.7135C18.7135 42.9236 18.6228 47.6358 22.7914 47.7264Z" stroke="#1D1B19" stroke-width="0.226099"/>
<path d="M7.92969 34.8584H9.28899V31.4148H7.92969V33.1366V34.8584Z" stroke="#1D1B19" stroke-width="0.226099"/>
<path fill-rule="evenodd" clip-rule="evenodd" d="M31.1282 23.3496L25.6004 28.0618H30.4939V30.5992H36.3842V31.4148V34.8583V35.5833H30.4939V38.4831H25.6004L31.1282 42.9235H26.9597H18.7133H13.8198L19.982 38.4831H14.9979V35.5833H9.2888V34.8583V31.4148V30.5992H14.9979V28.0618H19.982L13.8198 23.3496H18.7133H22.8365H26.9597H31.1282ZM6.29834 31.4148L7.9295 33.1366L6.29834 34.8583V31.4148ZM38.106 33.1366L39.284 31.4148V34.8583L38.106 33.1366Z" fill="#EE2D2F" stroke="#1D1B19" stroke-width="0.226099"/>
<path d="M4.43164 29.8446H14.1516V27.4964L18.071 27.478L11.8 22.7098H17.9142C17.9142 22.7098 19.2422 18.0715 22.7742 18.0715C26.3062 18.0715 27.6342 22.7098 27.6342 22.7098H32.8078L27.3207 27.4964H31.24V29.8446H40.3329C40.3329 29.8446 37.9813 15.4064 23.3183 14.3103C8.65533 13.2142 4.43164 29.8446 4.43164 29.8446Z" fill="#FCAD1C"/>
<path d="M4.58887 36.2574H14.1521V39.2361L17.5622 39.2328L11.4869 43.6258H17.9147C17.9147 43.6258 18.9577 48.486 22.9314 48.4858C26.9052 48.4857 27.9482 43.6258 27.9482 43.6258H33.4353L27.9482 39.2328H31.2405V36.2575H40.3334C40.3334 36.2575 36.8013 50.9942 22.9314 51.6213C9.06154 52.2484 4.58887 36.2574 4.58887 36.2574Z" fill="#FCAD1C"/>
<path d="M22.2798 31.4529L22.2406 31.4174H22.1878H20.0837H19.7579L19.9859 31.6501L20.729 32.4086H18.3843H18.2379L18.2477 32.5547L18.3286 33.7662L18.3371 33.8939H18.4652H20.7494L19.9815 34.7555L19.7783 34.9835H20.0837H22.1878H22.242L22.2815 34.9464L23.0026 34.2699L23.8246 34.9519L23.8626 34.9835H23.912H25.8223H26.1095L25.9287 34.7604L25.2264 33.8939H27.4075H27.5444V33.757V32.6924V32.5555H27.4075H25.1415L25.7038 31.6251L25.8294 31.4174H25.5867H23.8063H23.7535L23.7143 31.4529L22.997 32.1037L22.2798 31.4529Z" fill="#FBC2D0" stroke="#1D1B19" stroke-width="0.273809"/>
<path d="M23.5671 32.6408C23.5335 32.6073 23.4937 32.5806 23.4498 32.5624C23.406 32.5443 23.3589 32.5349 23.3115 32.5349C23.264 32.5349 23.217 32.5443 23.1731 32.5624C23.1292 32.5806 23.0894 32.6073 23.0558 32.6408L22.9862 32.7105L22.9165 32.6408C22.8487 32.573 22.7567 32.5349 22.6609 32.5349C22.565 32.5349 22.473 32.573 22.4052 32.6408C22.3374 32.7086 22.2993 32.8006 22.2993 32.8965C22.2993 32.9924 22.3374 33.0843 22.4052 33.1521L22.4749 33.2218L22.9862 33.7331L23.4974 33.2218L23.5671 33.1521C23.6007 33.1186 23.6273 33.0787 23.6455 33.0348C23.6637 32.991 23.673 32.944 23.673 32.8965C23.673 32.849 23.6637 32.802 23.6455 32.7581C23.6273 32.7143 23.6007 32.6744 23.5671 32.6408Z" fill="#FBCE01" stroke="#1D1B19" stroke-width="0.117347" stroke-linecap="round" stroke-linejoin="round"/>
<path d="M98.7771 32.376C97.9718 33.1813 97.1933 33.584 96.4416 33.584C95.69 33.584 94.992 33.3558 94.3477 32.8994C93.7303 32.4162 93.1666 31.678 92.6565 30.6848C92.1733 29.6647 91.7438 29.1546 91.368 29.1546C90.5626 29.1546 89.5425 30.0942 88.3077 31.9733C87.8513 32.6713 87.2473 33.3155 86.4957 33.9061C85.744 34.4967 84.979 34.792 84.2005 34.792C83.422 34.792 82.8045 34.5235 82.3482 33.9867C81.8918 33.4498 81.5965 32.9397 81.4623 32.4565C81.3012 31.9196 81.0462 30.7519 80.6972 28.9533C80.3483 27.1547 80.1067 26.2017 79.9724 26.0943C79.8651 25.987 79.7711 25.9333 79.6906 25.9333C79.3147 25.9333 78.9792 26.1749 78.6839 26.6581C78.4155 27.1144 78.1067 27.7587 77.7578 28.5909C77.4088 29.4231 77.0732 30.2821 76.7511 31.168C76.4558 32.027 76.2142 32.6713 76.0263 33.1008C75.8384 33.5035 75.5833 33.9732 75.2612 34.5101C74.6706 35.5034 73.8653 36 72.8452 36C71.8519 36 71.1003 35.7047 70.5902 35.1141C70.0802 34.5235 69.6373 33.8122 69.2614 32.98C68.9125 32.121 68.6172 31.3693 68.3756 30.725C68.1608 30.0539 67.9595 29.4902 67.7716 29.0338C67.6105 28.5775 67.436 28.1345 67.2481 27.705C66.8723 26.7923 66.4562 26.3359 65.9998 26.3359C65.275 26.3359 64.416 27.5708 63.4227 30.0405C62.9932 31.0606 62.3489 32.0002 61.4899 32.8592C60.2014 34.1477 59.141 34.792 58.3088 34.792C57.4766 34.792 57.0606 34.3893 57.0606 33.584C57.0606 33.0739 57.4632 32.6578 58.2686 32.3357C59.5571 31.8257 60.4832 30.8727 61.047 29.4768C61.7181 27.705 62.4295 26.3359 63.1811 25.3695C63.9596 24.4031 64.8992 23.9199 65.9998 23.9199C67.0199 23.9199 67.8252 24.2957 68.4158 25.0474C69.0869 25.9333 69.7446 27.3158 70.3889 29.1949C71.06 31.074 71.5432 32.282 71.8385 32.8189C72.1338 33.329 72.4694 33.584 72.8452 33.584C73.0599 33.584 73.2881 33.3021 73.5297 32.7384C73.7713 32.1478 73.9727 31.6512 74.1337 31.2485C74.2948 30.819 74.4827 30.3089 74.6975 29.7184C75.5028 27.4366 76.2947 25.8393 77.0732 24.9266C77.8517 23.987 78.7242 23.5173 79.6906 23.5173C80.818 23.5173 81.6234 24.0273 82.1066 25.0474C82.5093 25.9333 82.7911 26.8057 82.9522 27.6647C83.4891 30.8056 83.8783 32.376 84.1199 32.376C84.9253 32.376 85.9454 31.4364 87.1802 29.5573C87.6366 28.8593 88.2406 28.2151 88.9922 27.6245C89.7439 27.0339 90.4687 26.7386 91.1666 26.7386C91.8914 26.7386 92.5626 26.9802 93.18 27.4634C93.8243 27.9198 94.388 28.658 94.8712 29.6781C95.3813 30.6713 95.8242 31.168 96.2 31.168C96.4953 31.168 96.898 30.8727 97.408 30.2821C97.9181 29.6647 98.4818 28.9264 99.0992 28.0674C99.7167 27.2084 100.173 26.6312 100.468 26.3359C101.274 25.5306 102.079 25.1279 102.884 25.1279C103.69 25.1279 104.334 25.3427 104.817 25.7722C105.3 26.1749 105.757 27.1547 106.186 28.7117C106.643 30.2687 107.032 31.7183 107.354 33.0605C107.703 34.4027 108.012 35.0739 108.28 35.0739C108.575 35.0739 108.924 34.7383 109.327 34.0672C109.73 33.3692 110.132 32.5773 110.535 31.6914C110.965 30.8056 111.314 30.2016 111.582 29.8794C111.85 29.5573 112.092 29.2888 112.307 29.0741C112.897 28.4835 113.542 28.2016 114.24 28.2285C114.964 28.2285 115.515 28.403 115.891 28.752C116.293 29.0741 116.682 29.6647 117.058 30.5237C117.461 31.3827 117.797 32.1612 118.065 32.8592C118.36 33.5303 118.588 33.8659 118.749 33.8659C118.964 33.8659 119.327 33.6377 119.837 33.1813C120.347 32.6981 120.937 32.2283 121.608 31.772C122.306 31.2888 122.964 31.0472 123.582 31.0472C124.387 31.074 125.246 31.4901 126.159 32.2954C126.83 32.9129 127.367 33.2216 127.769 33.2216C128.172 33.1947 128.776 33.0471 129.581 32.7786C130.387 32.5102 130.83 32.376 130.91 32.376C131.715 32.376 132.118 32.7786 132.118 33.584C132.118 34.1746 131.715 34.6041 130.91 34.8725C129.46 35.3557 128.387 35.5973 127.689 35.5973C126.749 35.5973 125.85 35.1947 124.991 34.3893C124.347 33.7987 123.904 33.5035 123.662 33.5035C123.394 33.4498 123.004 33.6645 122.494 34.1477C120.964 35.5436 119.716 36.255 118.749 36.2819C118.078 36.2819 117.541 36.1208 117.139 35.7987C116.763 35.4497 116.374 34.8591 115.971 34.0269C115.595 33.1679 115.26 32.3894 114.964 31.6914C114.696 30.9935 114.481 30.6445 114.32 30.6445C113.891 30.6445 113.139 31.772 112.065 34.0269C110.991 36.3356 109.73 37.4899 108.28 37.4899C107.582 37.4899 106.992 37.2751 106.508 36.8456C106.025 36.4429 105.555 35.4631 105.099 33.9061C104.669 32.3491 104.28 30.8995 103.931 29.5573C103.609 28.2151 103.3 27.5439 103.005 27.5439C102.737 27.5439 102.347 27.8527 101.837 28.4701C101.327 29.0607 100.764 29.7855 100.146 30.6445C99.5287 31.5035 99.0724 32.0807 98.7771 32.376ZM163.841 26.7386C165.666 26.7386 166.74 28.0271 167.062 30.6042C167.089 30.7385 167.116 30.9801 167.142 31.329C167.196 31.6512 167.236 31.9062 167.263 32.0941C167.29 32.282 167.33 32.4297 167.384 32.537C167.384 32.6444 167.411 32.7518 167.465 32.8592C167.545 33.0739 167.679 33.1813 167.867 33.1813C168.377 33.1813 169.035 33.0471 169.84 32.7786C170.646 32.5102 171.089 32.376 171.169 32.376C171.975 32.376 172.377 32.7786 172.377 33.584C172.377 34.1746 171.975 34.6041 171.169 34.8725C169.72 35.3557 168.592 35.5973 167.787 35.5973C166.042 35.5973 164.995 34.0403 164.646 30.9264C164.485 29.7452 164.216 29.1546 163.841 29.1546C163.035 29.1546 162.015 30.0942 160.78 31.9733C160.324 32.6713 159.72 33.3155 158.968 33.9061C158.217 34.4967 157.452 34.792 156.673 34.792C155.895 34.792 155.277 34.5235 154.821 33.9867C154.364 33.4498 154.069 32.9397 153.935 32.4565C153.774 31.9196 153.519 30.7519 153.17 28.9533C152.821 27.1547 152.579 26.2017 152.445 26.0943C152.338 25.987 152.244 25.9333 152.163 25.9333C151.787 25.9333 151.452 26.1749 151.156 26.6581C150.888 27.1144 150.579 27.7587 150.23 28.5909C149.881 29.4231 149.546 30.2821 149.224 31.168C148.928 32.027 148.687 32.6713 148.499 33.1008C148.311 33.5035 148.056 33.9732 147.734 34.5101C147.143 35.5034 146.338 36 145.318 36C144.62 36 144.029 35.7584 143.546 35.2752C143.063 34.792 142.687 34.1746 142.419 33.4229C141.935 31.9196 141.68 30.3895 141.654 28.8325C141.654 27.2487 141.492 26.0406 141.17 25.2085C140.875 24.3494 140.513 23.9199 140.083 23.9199C138.687 23.9199 137.64 24.7789 136.942 26.497C136.62 27.3292 136.271 28.5104 135.895 30.0405C135.358 32.1075 134.083 33.5706 132.07 34.4296C131.64 34.6712 131.198 34.792 130.741 34.792C129.936 34.792 129.533 34.3893 129.533 33.584C129.533 33.0739 129.936 32.6578 130.741 32.3357C131.063 32.2015 131.238 32.1344 131.265 32.1344C131.318 32.1075 131.426 32.0538 131.587 31.9733C131.748 31.8928 131.855 31.8391 131.909 31.8122C131.963 31.7586 132.057 31.6914 132.191 31.6109C132.352 31.5035 132.459 31.4096 132.513 31.329C132.593 31.2217 132.687 31.1009 132.795 30.9666C132.929 30.8324 133.023 30.6982 133.077 30.564C133.291 30.1613 133.479 29.6378 133.64 28.9936C133.801 28.3493 133.949 27.8124 134.083 27.3829C134.218 26.9534 134.473 26.2957 134.848 25.4098C135.224 24.4971 135.613 23.8125 136.016 23.3562C136.419 22.8998 136.969 22.4837 137.667 22.1079C138.392 21.7052 139.264 21.5039 140.284 21.5039C141.331 21.5039 142.217 22.1079 142.942 23.3159C143.694 24.4971 144.07 26.3091 144.07 28.752C144.07 29.611 144.163 30.6311 144.351 31.8122C144.566 32.9934 144.888 33.584 145.318 33.584C145.533 33.584 145.761 33.3021 146.002 32.7384C146.244 32.1478 146.445 31.6512 146.606 31.2485C146.767 30.819 146.955 30.3089 147.17 29.7184C147.975 27.4366 148.767 25.8393 149.546 24.9266C150.324 23.987 151.197 23.5173 152.163 23.5173C153.291 23.5173 154.096 24.0273 154.579 25.0474C154.982 25.9333 155.264 26.8057 155.425 27.6647C155.962 30.8056 156.351 32.376 156.593 32.376C157.398 32.376 158.418 31.4364 159.653 29.5573C160.109 28.8593 160.713 28.2151 161.465 27.6245C162.216 27.0339 163.008 26.7386 163.841 26.7386ZM196.537 34.8725C195.088 35.3557 193.96 35.5973 193.155 35.5973C192.35 35.5973 191.719 35.302 191.262 34.7115C190.806 34.1209 190.39 33.1142 190.014 31.6914C189.665 30.2687 189.397 29.5573 189.209 29.5573C188.511 29.5573 187.773 30.6311 186.994 32.7786C186.699 33.584 186.216 34.3222 185.544 34.9933C184.873 35.6644 184.028 36 183.008 36C182.014 36 181.236 35.5571 180.672 34.6712C180.108 33.7853 179.773 32.8189 179.665 31.772C179.585 30.725 179.451 29.7586 179.263 28.8728C179.075 27.9869 178.766 27.5439 178.337 27.5439C178.041 27.5439 177.827 27.6245 177.692 27.7855C177.558 27.9466 177.437 28.1077 177.33 28.2688C177.249 28.403 177.156 28.5506 177.048 28.7117C176.968 28.8459 176.86 29.0338 176.726 29.2754C176.619 29.517 176.484 29.772 176.323 30.0405C175.786 30.9801 175.357 31.678 175.035 32.1344C174.391 33.1545 173.438 33.933 172.176 34.4699C171.693 34.6846 171.303 34.792 171.008 34.792C170.203 34.792 169.8 34.3893 169.8 33.584C169.8 33.0739 170.23 32.6578 171.089 32.3357C171.948 32.0136 172.552 31.5572 172.901 30.9666C173.276 30.3492 173.693 29.6512 174.149 28.8728C174.605 28.0943 174.914 27.5708 175.075 27.3023C175.263 27.0339 175.491 26.7118 175.76 26.3359C176.028 25.9333 176.27 25.6782 176.484 25.5709C177.048 25.2756 177.666 25.1279 178.337 25.1279C179.437 25.1279 180.269 25.5709 180.833 26.4567C181.397 27.3426 181.719 28.309 181.8 29.356C181.907 30.4029 182.055 31.3693 182.243 32.2552C182.43 33.141 182.739 33.584 183.169 33.584C183.598 33.584 184.001 33.2484 184.377 32.5773C184.779 31.9062 185.128 31.168 185.424 30.3626C185.719 29.5573 186.189 28.8191 186.833 28.1479C187.504 27.4768 188.296 27.1413 189.209 27.1413C189.907 27.1413 190.417 27.3158 190.739 27.6647C191.061 27.9869 191.289 28.2419 191.423 28.4298C191.584 28.6177 191.719 28.8996 191.826 29.2754C191.96 29.6512 192.054 29.9331 192.108 30.121C192.162 30.2821 192.242 30.5774 192.35 31.0069C192.672 32.4834 192.967 33.2082 193.235 33.1813C193.745 33.1813 194.403 33.0471 195.209 32.7786C196.014 32.5102 196.457 32.376 196.537 32.376C197.343 32.376 197.745 32.7786 197.745 33.584C197.745 34.1746 197.343 34.6041 196.537 34.8725ZM214.572 32.6981C214.572 32.6981 215.002 32.5907 215.861 32.376C216.666 32.376 217.069 32.7786 217.069 33.584C217.069 34.1746 216.666 34.6041 215.861 34.8725C215.378 35.0336 214.894 35.1141 214.411 35.1141C213.955 35.1141 213.512 35.0067 213.082 34.792C212.653 34.5772 212.317 34.2551 212.076 33.8256C211.673 33.1276 211.378 32.376 211.19 31.5706L211.029 30.8861C210.572 31.6646 209.458 32.5773 207.687 33.6243C205.942 34.6712 204.076 35.1947 202.089 35.1947C201.016 35.1947 200.076 34.792 199.271 33.9867C198.465 33.1813 198.063 32.2418 198.063 31.168C198.063 28.564 199.137 26.3091 201.284 24.4031C203.432 22.4703 205.606 21.5039 207.807 21.5039C209.015 21.5039 210.049 21.7321 210.908 22.1884C211.794 22.618 212.237 23.0609 212.237 23.5173C212.237 24.3226 211.834 24.7253 211.029 24.7253C210.868 24.7253 210.478 24.591 209.861 24.3226C209.244 24.0541 208.559 23.9199 207.807 23.9199C206.358 23.9199 204.774 24.6313 203.056 26.0541C201.338 27.45 200.479 29.1546 200.479 31.168C200.479 31.5706 200.64 31.9465 200.962 32.2954C201.311 32.6176 201.687 32.7786 202.089 32.7786C203.673 32.7786 205.15 32.3626 206.519 31.5304C207.888 30.6713 208.76 29.9734 209.136 29.4365C209.512 28.8728 209.821 28.3627 210.062 27.9063C210.304 27.45 210.478 27.1547 210.586 27.0205C210.72 26.8594 210.988 26.7789 211.391 26.7789C211.794 26.7789 212.102 26.9265 212.317 27.2218C212.532 27.5171 212.733 27.9869 212.921 28.6312C213.109 29.2486 213.297 29.9465 213.485 30.725C213.673 31.5035 213.834 32.027 213.968 32.2954C214.129 32.5639 214.331 32.6981 214.572 32.6981ZM241.248 34.8725C239.798 35.3557 238.671 35.5973 237.865 35.5973C237.06 35.5973 236.429 35.302 235.973 34.7115C235.516 34.1209 235.1 33.1142 234.725 31.6914C234.376 30.2687 234.107 29.5573 233.919 29.5573C233.221 29.5573 232.483 30.6311 231.705 32.7786C231.409 33.584 230.926 34.3222 230.255 34.9933C229.584 35.6644 228.738 36 227.718 36C226.725 36 225.946 35.5571 225.383 34.6712C224.819 33.7853 224.483 32.8189 224.376 31.772C224.295 30.725 224.161 29.7586 223.973 28.8728C223.785 27.9869 223.477 27.5439 223.047 27.5439C222.752 27.5439 222.537 27.6245 222.403 27.7855C222.269 27.9466 222.148 28.1077 222.04 28.2688C221.96 28.403 221.866 28.5506 221.759 28.7117C221.678 28.8459 221.571 29.0338 221.436 29.2754C221.329 29.517 221.195 29.772 221.034 30.0405C220.497 30.9801 220.067 31.678 219.745 32.1344C219.101 33.1545 218.148 33.933 216.886 34.4699C216.403 34.6846 216.014 34.792 215.719 34.792C214.913 34.792 214.511 34.3893 214.511 33.584C214.511 33.0739 214.94 32.6578 215.799 32.3357C216.658 32.0136 217.262 31.5572 217.611 30.9666C217.987 30.3492 218.403 29.6512 218.859 28.8728C219.316 28.0943 219.624 27.5708 219.785 27.3023C219.973 27.0339 220.202 26.7118 220.47 26.3359C220.738 25.9333 220.98 25.6782 221.195 25.5709C221.759 25.2756 222.376 25.1279 223.047 25.1279C224.148 25.1279 224.98 25.5709 225.544 26.4567C226.107 27.3426 226.43 28.309 226.51 29.356C226.617 30.4029 226.765 31.3693 226.953 32.2552C227.141 33.141 227.45 33.584 227.879 33.584C228.309 33.584 228.711 33.2484 229.087 32.5773C229.49 31.9062 229.839 31.168 230.134 30.3626C230.429 29.5573 230.899 28.8191 231.543 28.1479C232.215 27.4768 233.006 27.1413 233.919 27.1413C234.617 27.1413 235.127 27.3158 235.449 27.6647C235.771 27.9869 236 28.2419 236.134 28.4298C236.295 28.6177 236.429 28.8996 236.537 29.2754C236.671 29.6512 236.765 29.9331 236.818 30.121C236.872 30.2821 236.953 30.5774 237.06 31.0069C237.382 32.4834 237.677 33.2082 237.946 33.1813C238.456 33.1813 239.114 33.0471 239.919 32.7786C240.724 32.5102 241.167 32.376 241.248 32.376C242.053 32.376 242.456 32.7786 242.456 33.584C242.456 34.1746 242.053 34.6041 241.248 34.8725ZM265.001 31.4498C264.249 32.5505 263.269 33.4498 262.061 34.1477C260.853 34.8457 259.564 35.1947 258.195 35.1947C256.853 35.1947 255.793 34.7517 255.014 33.8659C254.263 32.98 253.833 31.933 253.726 30.725C251.954 34.2417 249.941 36 247.686 36C246.236 36 245.055 35.5839 244.142 34.7517C243.23 33.8927 242.773 32.3626 242.773 30.1613C242.773 27.9332 243.498 25.9333 244.948 24.1615C246.397 22.3898 248.088 21.5039 250.021 21.5039C251.122 21.5039 252.41 22.1079 253.887 23.3159C254.37 17.8396 255.35 13.2358 256.826 9.50436C257.148 8.69902 257.565 8.29635 258.075 8.29635C258.88 8.29635 259.283 8.69902 259.283 9.50436C259.283 9.69227 259.229 9.92045 259.122 10.1889C258.236 12.3902 257.497 15.1552 256.907 18.4839C256.343 21.8126 256.061 25.3695 256.061 29.1546C256.061 30.4163 256.209 31.3425 256.504 31.933C256.826 32.4968 257.484 32.7786 258.477 32.7786C260.249 32.7786 261.806 31.8391 263.148 29.96C263.229 29.8526 263.457 29.517 263.833 28.9533C264.235 28.3896 264.517 28.0137 264.678 27.8258C264.839 27.6111 265.108 27.2889 265.484 26.8594C265.86 26.403 266.182 26.0943 266.45 25.9333C267.255 25.3964 268.007 25.1279 268.705 25.1279C269.43 25.1279 270.074 25.4098 270.638 25.9735C271.202 26.5104 271.618 27.1681 271.886 27.9466C272.128 28.752 272.356 29.5573 272.571 30.3626C273.054 32.2686 273.591 33.2082 274.181 33.1813C274.691 33.1813 275.349 33.0471 276.154 32.7786C276.96 32.5102 277.403 32.376 277.483 32.376C278.289 32.376 278.691 32.7786 278.691 33.584C278.691 34.1746 278.289 34.6041 277.483 34.8725C276.034 35.3557 274.906 35.5973 274.101 35.5973C273.322 35.5973 272.651 35.3289 272.088 34.792C271.524 34.2283 271.108 33.5571 270.839 32.7786C270.598 31.9733 270.369 31.168 270.155 30.3626C269.671 28.4835 269.135 27.5439 268.544 27.5439C267.953 27.5439 266.772 28.8459 265.001 31.4498ZM267.336 16.0276C267.766 16.0276 268.208 16.2289 268.665 16.6316C269.121 17.0074 269.349 17.4101 269.349 17.8396C269.349 18.2423 269.175 18.551 268.826 18.7658C268.504 18.9805 268.128 19.0879 267.698 19.0879C267.269 19.0879 266.893 18.9 266.571 18.5242C266.276 18.1215 266.128 17.692 266.128 17.2356C266.128 16.4303 266.531 16.0276 267.336 16.0276ZM253.243 25.5306C252.92 25.5306 252.706 25.4769 252.598 25.3695C252.384 25.1548 252.155 24.9669 251.914 24.8058C251.189 24.2152 250.558 23.9199 250.021 23.9199C248.84 23.9199 247.739 24.5508 246.719 25.8125C245.699 27.0473 245.189 28.6177 245.189 30.5237C245.189 31.7317 245.377 32.5505 245.753 32.98C246.156 33.3826 246.8 33.584 247.686 33.584C249.565 33.584 251.417 30.8995 253.243 25.5306Z" fill="#F7F7F7"/>
<path d="M59.2789 53.1248V46.1236H60.5871V47.2631H60.6737C60.8195 46.8772 61.0581 46.5763 61.3893 46.3606C61.7205 46.1418 62.117 46.0324 62.5789 46.0324C63.0469 46.0324 63.4389 46.1418 63.7549 46.3606C64.074 46.5794 64.3095 46.8802 64.4614 47.2631H64.5343C64.7015 46.8893 64.9674 46.5915 65.332 46.3697C65.6967 46.1448 66.1312 46.0324 66.6356 46.0324C67.2707 46.0324 67.7888 46.2314 68.1899 46.6295C68.5941 47.0276 68.7961 47.6277 68.7961 48.4299V53.1248H67.4333V48.5576C67.4333 48.0835 67.3041 47.7401 67.0458 47.5274C66.7876 47.3147 66.4791 47.2084 66.1206 47.2084C65.6769 47.2084 65.332 47.3451 65.0859 47.6186C64.8397 47.889 64.7167 48.237 64.7167 48.6624V53.1248H63.3584V48.471C63.3584 48.0911 63.2399 47.7857 63.0028 47.5548C62.7658 47.3238 62.4574 47.2084 62.0775 47.2084C61.8193 47.2084 61.5807 47.2767 61.3619 47.4135C61.1462 47.5472 60.9714 47.7341 60.8377 47.9741C60.7071 48.2142 60.6417 48.4922 60.6417 48.8083V53.1248H59.2789ZM72.2914 53.1248V46.1236H73.5996V47.2631H73.6862C73.832 46.8772 74.0706 46.5763 74.4018 46.3606C74.733 46.1418 75.1296 46.0324 75.5915 46.0324C76.0594 46.0324 76.4514 46.1418 76.7674 46.3606C77.0865 46.5794 77.322 46.8802 77.4739 47.2631H77.5469C77.714 46.8893 77.9799 46.5915 78.3445 46.3697C78.7092 46.1448 79.1437 46.0324 79.6481 46.0324C80.2832 46.0324 80.8013 46.2314 81.2025 46.6295C81.6066 47.0276 81.8087 47.6277 81.8087 48.4299V53.1248H80.4458V48.5576C80.4458 48.0835 80.3167 47.7401 80.0584 47.5274C79.8001 47.3147 79.4917 47.2084 79.1331 47.2084C78.6894 47.2084 78.3445 47.3451 78.0984 47.6186C77.8523 47.889 77.7292 48.237 77.7292 48.6624V53.1248H76.3709V48.471C76.3709 48.0911 76.2524 47.7857 76.0154 47.5548C75.7783 47.3238 75.4699 47.2084 75.0901 47.2084C74.8318 47.2084 74.5932 47.2767 74.3745 47.4135C74.1587 47.5472 73.984 47.7341 73.8503 47.9741C73.7196 48.2142 73.6543 48.4922 73.6543 48.8083V53.1248H72.2914ZM85.3039 53.1248V46.1236H86.6121V47.2631H86.6987C86.8446 46.8772 87.0831 46.5763 87.4143 46.3606C87.7456 46.1418 88.1421 46.0324 88.604 46.0324C89.072 46.0324 89.4639 46.1418 89.78 46.3606C90.099 46.5794 90.3345 46.8802 90.4865 47.2631H90.5594C90.7265 46.8893 90.9924 46.5915 91.3571 46.3697C91.7217 46.1448 92.1563 46.0324 92.6607 46.0324C93.2958 46.0324 93.8139 46.2314 94.215 46.6295C94.6191 47.0276 94.8212 47.6277 94.8212 48.4299V53.1248H93.4583V48.5576C93.4583 48.0835 93.3292 47.7401 93.0709 47.5274C92.8126 47.3147 92.5042 47.2084 92.1456 47.2084C91.702 47.2084 91.3571 47.3451 91.1109 47.6186C90.8648 47.889 90.7417 48.237 90.7417 48.6624V53.1248H89.3834V48.471C89.3834 48.0911 89.2649 47.7857 89.0279 47.5548C88.7909 47.3238 88.4824 47.2084 88.1026 47.2084C87.8443 47.2084 87.6058 47.2767 87.387 47.4135C87.1712 47.5472 86.9965 47.7341 86.8628 47.9741C86.7321 48.2142 86.6668 48.4922 86.6668 48.8083V53.1248H85.3039ZM99.6793 48.9678V53.1248H98.3165V46.1236H99.6246V47.2631H99.7112C99.8723 46.8923 100.125 46.5946 100.468 46.3697C100.814 46.1448 101.25 46.0324 101.776 46.0324C102.253 46.0324 102.671 46.1327 103.03 46.3332C103.388 46.5307 103.666 46.8255 103.864 47.2175C104.061 47.6095 104.16 48.0942 104.16 48.6715V53.1248H102.797V48.8356C102.797 48.3281 102.665 47.9316 102.401 47.6459C102.136 47.3573 101.773 47.2129 101.311 47.2129C100.995 47.2129 100.714 47.2813 100.468 47.418C100.225 47.5548 100.032 47.7553 99.889 48.0197C99.7492 48.281 99.6793 48.5971 99.6793 48.9678ZM109.694 53.2797C109.25 53.2797 108.849 53.1977 108.49 53.0336C108.132 52.8665 107.848 52.6249 107.638 52.3089C107.431 51.9928 107.328 51.6054 107.328 51.1466C107.328 50.7515 107.404 50.4264 107.556 50.1711C107.708 49.9159 107.913 49.7138 108.171 49.5649C108.43 49.416 108.718 49.3036 109.037 49.2276C109.357 49.1516 109.682 49.0939 110.013 49.0544C110.432 49.0058 110.773 48.9663 111.034 48.9359C111.295 48.9025 111.485 48.8493 111.604 48.7764C111.722 48.7034 111.781 48.5849 111.781 48.4208V48.3889C111.781 47.9908 111.669 47.6824 111.444 47.4636C111.222 47.2448 110.891 47.1354 110.45 47.1354C109.992 47.1354 109.63 47.2372 109.366 47.4408C109.104 47.6414 108.923 47.8647 108.823 48.1109L107.542 47.8192C107.694 47.3937 107.916 47.0504 108.208 46.789C108.503 46.5247 108.841 46.3332 109.224 46.2147C109.607 46.0932 110.01 46.0324 110.432 46.0324C110.712 46.0324 111.008 46.0658 111.321 46.1327C111.637 46.1965 111.932 46.315 112.205 46.4882C112.482 46.6614 112.708 46.9091 112.884 47.2312C113.061 47.5502 113.149 47.965 113.149 48.4755V53.1248H111.818V52.1676H111.763C111.675 52.3438 111.543 52.517 111.367 52.6872C111.19 52.8573 110.964 52.9986 110.687 53.1111C110.411 53.2235 110.08 53.2797 109.694 53.2797ZM109.99 52.1858C110.367 52.1858 110.689 52.1113 110.956 51.9624C111.227 51.8135 111.432 51.6191 111.572 51.379C111.715 51.1359 111.786 50.8761 111.786 50.5996V49.6971C111.737 49.7457 111.643 49.7913 111.503 49.8338C111.367 49.8733 111.21 49.9083 111.034 49.9387C110.858 49.966 110.686 49.9918 110.519 50.0161C110.352 50.0374 110.212 50.0557 110.099 50.0708C109.835 50.1043 109.594 50.1605 109.375 50.2395C109.159 50.3185 108.986 50.4325 108.855 50.5813C108.727 50.7272 108.664 50.9217 108.664 51.1648C108.664 51.5021 108.788 51.7573 109.037 51.9305C109.287 52.1007 109.604 52.1858 109.99 52.1858ZM117.996 48.9678V53.1248H116.633V46.1236H117.941V47.2631H118.027C118.189 46.8923 118.441 46.5946 118.784 46.3697C119.131 46.1448 119.567 46.0324 120.092 46.0324C120.569 46.0324 120.987 46.1327 121.346 46.3332C121.704 46.5307 121.982 46.8255 122.18 47.2175C122.377 47.6095 122.476 48.0942 122.476 48.6715V53.1248H121.113V48.8356C121.113 48.3281 120.981 47.9316 120.717 47.6459C120.452 47.3573 120.089 47.2129 119.627 47.2129C119.311 47.2129 119.03 47.2813 118.784 47.418C118.541 47.5548 118.348 47.7553 118.205 48.0197C118.065 48.281 117.996 48.5971 117.996 48.9678ZM128.593 53.2615C128.028 53.2615 127.524 53.1172 127.08 52.8285C126.64 52.5368 126.293 52.122 126.041 51.5841C125.792 51.0432 125.667 50.3945 125.667 49.6378C125.667 48.8812 125.793 48.2339 126.045 47.6961C126.301 47.1582 126.65 46.7465 127.094 46.4608C127.537 46.1752 128.04 46.0324 128.603 46.0324C129.037 46.0324 129.387 46.1053 129.651 46.2512C129.918 46.394 130.125 46.5611 130.271 46.7526C130.42 46.944 130.535 47.1127 130.617 47.2585H130.699V43.7898H132.062V53.1248H130.731V52.0354H130.617C130.535 52.1843 130.417 52.3544 130.262 52.5459C130.11 52.7373 129.9 52.9044 129.633 53.0473C129.365 53.1901 129.019 53.2615 128.593 53.2615ZM128.894 52.0992C129.286 52.0992 129.617 51.9959 129.888 51.7892C130.161 51.5796 130.368 51.2894 130.508 50.9186C130.651 50.5479 130.722 50.1164 130.722 49.6242C130.722 49.138 130.652 48.7125 130.512 48.3479C130.373 47.9832 130.168 47.6991 129.897 47.4955C129.627 47.2919 129.292 47.1901 128.894 47.1901C128.484 47.1901 128.142 47.2965 127.869 47.5092C127.595 47.7219 127.389 48.0121 127.249 48.3798C127.112 48.7475 127.044 49.1623 127.044 49.6242C127.044 50.0921 127.114 50.513 127.253 50.8867C127.393 51.2605 127.6 51.5568 127.873 51.7756C128.15 51.9913 128.49 52.0992 128.894 52.0992ZM135.676 53.1248V46.1236H137.039V53.1248H135.676ZM136.364 45.0433C136.127 45.0433 135.924 44.9643 135.753 44.8063C135.586 44.6452 135.503 44.4538 135.503 44.2319C135.503 44.0071 135.586 43.8156 135.753 43.6576C135.924 43.4966 136.127 43.4161 136.364 43.4161C136.601 43.4161 136.803 43.4966 136.97 43.6576C137.141 43.8156 137.226 44.0071 137.226 44.2319C137.226 44.4538 137.141 44.6452 136.97 44.8063C136.803 44.9643 136.601 45.0433 136.364 45.0433ZM153.25 43.7898V53.1248H151.956L147.211 46.2785H147.124V53.1248H145.716V43.7898H147.019L151.769 50.6452H151.856V43.7898H153.25ZM159.813 53.2661C159.157 53.2661 158.584 53.1156 158.095 52.8148C157.606 52.514 157.226 52.0931 156.955 51.5522C156.685 51.0113 156.55 50.3793 156.55 49.6561C156.55 48.9298 156.685 48.2947 156.955 47.7508C157.226 47.2069 157.606 46.7845 158.095 46.4836C158.584 46.1828 159.157 46.0324 159.813 46.0324C160.47 46.0324 161.042 46.1828 161.532 46.4836C162.021 46.7845 162.401 47.2069 162.671 47.7508C162.942 48.2947 163.077 48.9298 163.077 49.6561C163.077 50.3793 162.942 51.0113 162.671 51.5522C162.401 52.0931 162.021 52.514 161.532 52.8148C161.042 53.1156 160.47 53.2661 159.813 53.2661ZM159.818 52.122C160.243 52.122 160.596 52.0095 160.875 51.7847C161.155 51.5598 161.361 51.2605 161.495 50.8867C161.632 50.513 161.7 50.1012 161.7 49.6515C161.7 49.2048 161.632 48.7946 161.495 48.4208C161.361 48.044 161.155 47.7417 160.875 47.5138C160.596 47.2859 160.243 47.1719 159.818 47.1719C159.389 47.1719 159.034 47.2859 158.751 47.5138C158.472 47.7417 158.263 48.044 158.127 48.4208C157.993 48.7946 157.926 49.2048 157.926 49.6515C157.926 50.1012 157.993 50.513 158.127 50.8867C158.263 51.2605 158.472 51.5598 158.751 51.7847C159.034 52.0095 159.389 52.122 159.818 52.122ZM169.216 53.2661C168.559 53.2661 167.987 53.1156 167.497 52.8148C167.008 52.514 166.628 52.0931 166.358 51.5522C166.087 51.0113 165.952 50.3793 165.952 49.6561C165.952 48.9298 166.087 48.2947 166.358 47.7508C166.628 47.2069 167.008 46.7845 167.497 46.4836C167.987 46.1828 168.559 46.0324 169.216 46.0324C169.872 46.0324 170.445 46.1828 170.934 46.4836C171.423 46.7845 171.803 47.2069 172.074 47.7508C172.344 48.2947 172.479 48.9298 172.479 49.6561C172.479 50.3793 172.344 51.0113 172.074 51.5522C171.803 52.0931 171.423 52.514 170.934 52.8148C170.445 53.1156 169.872 53.2661 169.216 53.2661ZM169.22 52.122C169.646 52.122 169.998 52.0095 170.278 51.7847C170.557 51.5598 170.764 51.2605 170.898 50.8867C171.034 50.513 171.103 50.1012 171.103 49.6515C171.103 49.2048 171.034 48.7946 170.898 48.4208C170.764 48.044 170.557 47.7417 170.278 47.5138C169.998 47.2859 169.646 47.1719 169.22 47.1719C168.792 47.1719 168.436 47.2859 168.154 47.5138C167.874 47.7417 167.666 48.044 167.529 48.4208C167.396 48.7946 167.329 49.2048 167.329 49.6515C167.329 50.1012 167.396 50.513 167.529 50.8867C167.666 51.2605 167.874 51.5598 168.154 51.7847C168.436 52.0095 168.792 52.122 169.22 52.122ZM178.29 53.2615C177.725 53.2615 177.22 53.1172 176.777 52.8285C176.336 52.5368 175.99 52.122 175.738 51.5841C175.488 51.0432 175.364 50.3945 175.364 49.6378C175.364 48.8812 175.49 48.2339 175.742 47.6961C175.997 47.1582 176.347 46.7465 176.79 46.4608C177.234 46.1752 177.737 46.0324 178.299 46.0324C178.734 46.0324 179.083 46.1053 179.348 46.2512C179.615 46.394 179.822 46.5611 179.967 46.7526C180.116 46.944 180.232 47.1127 180.314 47.2585H180.396V43.7898H181.759V53.1248H180.428V52.0354H180.314C180.232 52.1843 180.113 52.3544 179.958 52.5459C179.806 52.7373 179.597 52.9044 179.329 53.0473C179.062 53.1901 178.715 53.2615 178.29 53.2615ZM178.591 52.0992C178.983 52.0992 179.314 51.9959 179.585 51.7892C179.858 51.5796 180.065 51.2894 180.204 50.9186C180.347 50.5479 180.419 50.1164 180.419 49.6242C180.419 49.138 180.349 48.7125 180.209 48.3479C180.069 47.9832 179.864 47.6991 179.594 47.4955C179.323 47.2919 178.989 47.1901 178.591 47.1901C178.181 47.1901 177.839 47.2965 177.565 47.5092C177.292 47.7219 177.085 48.0121 176.945 48.3798C176.809 48.7475 176.74 49.1623 176.74 49.6242C176.74 50.0921 176.81 50.513 176.95 50.8867C177.09 51.2605 177.296 51.5568 177.57 51.7756C177.846 51.9913 178.187 52.0992 178.591 52.0992ZM186.735 43.7898V53.1248H185.373V43.7898H186.735ZM193.255 53.2661C192.565 53.2661 191.971 53.1187 191.473 52.8239C190.977 52.5261 190.595 52.1083 190.324 51.5705C190.057 51.0296 189.923 50.396 189.923 49.6697C189.923 48.9526 190.057 48.3205 190.324 47.7736C190.595 47.2266 190.971 46.7997 191.454 46.4928C191.941 46.1858 192.509 46.0324 193.159 46.0324C193.554 46.0324 193.937 46.0977 194.308 46.2284C194.679 46.3591 195.011 46.5642 195.306 46.8437C195.601 47.1233 195.833 47.4864 196.003 47.9331C196.174 48.3768 196.259 48.9161 196.259 49.5512V50.0344H190.693V49.0134H194.923C194.923 48.6548 194.85 48.3373 194.704 48.0607C194.559 47.7812 194.353 47.5609 194.089 47.3998C193.828 47.2388 193.521 47.1582 193.168 47.1582C192.785 47.1582 192.451 47.2524 192.166 47.4408C191.883 47.6262 191.664 47.8693 191.509 48.1701C191.357 48.4679 191.281 48.7915 191.281 49.141V49.9387C191.281 50.4066 191.363 50.8047 191.527 51.1329C191.695 51.4611 191.927 51.7118 192.225 51.885C192.523 52.0551 192.871 52.1402 193.269 52.1402C193.527 52.1402 193.762 52.1037 193.975 52.0308C194.188 51.9548 194.372 51.8424 194.527 51.6935C194.682 51.5446 194.8 51.3608 194.882 51.142L196.172 51.3745C196.069 51.7543 195.883 52.087 195.616 52.3727C195.352 52.6553 195.019 52.8756 194.618 53.0336C194.22 53.1886 193.765 53.2661 193.255 53.2661ZM204.686 47.8328L203.451 48.0516C203.399 47.8936 203.317 47.7432 203.204 47.6004C203.095 47.4575 202.946 47.3406 202.758 47.2494C202.569 47.1582 202.334 47.1127 202.051 47.1127C201.665 47.1127 201.343 47.1993 201.085 47.3725C200.827 47.5426 200.698 47.7629 200.698 48.0334C200.698 48.2674 200.784 48.4558 200.957 48.5986C201.131 48.7414 201.41 48.8584 201.796 48.9496L202.908 49.2048C203.552 49.3537 204.033 49.5831 204.349 49.8931C204.665 50.203 204.823 50.6057 204.823 51.101C204.823 51.5203 204.701 51.8941 204.458 52.2223C204.218 52.5474 203.882 52.8027 203.451 52.988C203.022 53.1734 202.525 53.2661 201.96 53.2661C201.176 53.2661 200.536 53.0989 200.041 52.7647C199.546 52.4274 199.242 51.9488 199.13 51.3289L200.447 51.1283C200.529 51.4717 200.698 51.7315 200.953 51.9077C201.208 52.081 201.541 52.1676 201.951 52.1676C202.398 52.1676 202.755 52.0749 203.022 51.8895C203.29 51.7011 203.423 51.4717 203.423 51.2012C203.423 50.9825 203.341 50.7986 203.177 50.6497C203.016 50.5008 202.768 50.3884 202.434 50.3124L201.249 50.0526C200.596 49.9037 200.113 49.6667 199.8 49.3416C199.49 49.0164 199.335 48.6047 199.335 48.1063C199.335 47.693 199.45 47.3314 199.681 47.0215C199.912 46.7115 200.231 46.47 200.638 46.2968C201.045 46.1205 201.512 46.0324 202.038 46.0324C202.794 46.0324 203.39 46.1965 203.824 46.5247C204.259 46.8498 204.546 47.2859 204.686 47.8328Z" fill="#F7F7F7"/>
</svg>
